<svg width="249pt" height="70pt" viewBox="-1 -1 251 72" xmlns="http://www.w3.org/2000/svg">
    <defs>
        <linearGradient id="grad1">
            <stop class="stop1" offset="0%" stop-color="#c90000"/>
            <stop class="stop3" offset="100%" stop-color="#2B31D6"/>
        </linearGradient>
    </defs>
    <style>
        #fontsvg1701424359683{
            fill:url(#grad1);
        }
    </style>
    <g id="fontsvg1701424359683" stroke-linecap="round" fill-rule="evenodd" stroke="#ffffff" stroke-width="1px" fill="#000000">
        <path d="M 94.24 64.4 L 123.76 64.4 L 136.16 53.52 L 130 69.2 L 80.56 69.12 L 121.68 4.48 L 93.44 4.48 L 78.48 16.8 L 86 0 L 135.68 0 L 94.24 64.4 Z M 26.88 69.2 L 0.08 69.2 L 8.8 64.24 L 8.8 5.12 L 0 0 L 22.96 0 A 14.653 14.653 0 0 1 23.724 0.022 Q 24.554 0.066 25.697 0.195 A 56.89 56.89 0 0 1 26.08 0.24 A 26.851 26.851 0 0 1 28.307 0.608 A 35.914 35.914 0 0 1 30.44 1.12 A 28.891 28.891 0 0 1 34.301 2.477 A 32.725 32.725 0 0 1 35.2 2.88 Q 37.6 4 39.56 5.84 A 14.717 14.717 0 0 1 42.296 9.358 A 17.228 17.228 0 0 1 42.8 10.32 A 12.912 12.912 0 0 1 43.821 13.419 Q 44.103 14.819 44.154 16.419 A 21.889 21.889 0 0 1 44.16 16.64 A 27.682 27.682 0 0 1 44.176 17.562 Q 44.176 21.254 43.143 23.988 A 12.636 12.636 0 0 1 42.84 24.72 A 17.739 17.739 0 0 1 40.804 28.179 A 14.927 14.927 0 0 1 39 30.16 Q 36.64 32.32 33.68 33.52 Q 30.72 34.72 27.8 35.28 Q 24.88 35.84 22.28 35.92 A 91.132 91.132 0 0 1 21.116 35.949 Q 19.384 35.98 18.187 35.925 A 25.233 25.233 0 0 1 18.08 35.92 L 18.08 64.24 L 26.88 69.2 Z M 189.04 56 L 170.4 56 L 175.76 52.8 L 175.76 11.2 L 171.28 7.6 L 186.56 7.6 A 10.166 10.166 0 0 1 187.317 7.632 Q 188.139 7.694 189.275 7.877 A 43.348 43.348 0 0 1 190 8 A 13.863 13.863 0 0 1 193.706 9.236 A 16.051 16.051 0 0 1 194.4 9.6 A 11.055 11.055 0 0 1 197.222 11.868 A 13.786 13.786 0 0 1 198.2 13.08 Q 199.575 14.991 199.853 17.999 A 16.831 16.831 0 0 1 199.92 19.2 A 24.793 24.793 0 0 1 199.926 19.739 Q 199.926 23.067 199 25.4 Q 198.109 27.645 196.9 29.129 A 9.699 9.699 0 0 1 196.6 29.48 Q 195.2 31.04 193.64 31.76 A 11.843 11.843 0 0 1 192.81 32.108 Q 191.81 32.48 191.12 32.48 L 202 52.72 L 206.24 56 L 193.92 56 L 183.76 35.04 L 183.76 52.8 L 189.04 56 Z M 248.72 56 L 230.48 56 L 234.08 51.84 L 231.52 39.36 L 221.52 39.36 L 218.24 52.16 L 222.48 56 L 207.6 56 L 213.2 51.84 L 224.32 11.52 L 219.28 7.52 L 231.76 7.52 L 244.08 52.48 L 248.72 56 Z M 44.96 7.6 L 59.44 7.6 L 57.04 10.88 L 63.12 24.56 L 69.04 10.88 L 66.32 7.6 L 76.4 7.6 L 73.6 10.88 L 65.68 29.76 L 65.68 52.56 L 68.56 56 L 53.52 56 L 56.72 52.32 L 56.72 30 L 48.56 10.88 L 44.96 7.6 Z M 167.698 20.189 A 24.675 24.675 0 0 0 166.08 16.16 A 23.807 23.807 0 0 0 164.341 13.253 A 18.356 18.356 0 0 0 160.24 9 A 15.397 15.397 0 0 0 159.742 8.647 A 12.407 12.407 0 0 0 152.64 6.4 A 12.471 12.471 0 0 0 149.683 6.75 A 13.337 13.337 0 0 0 145.16 8.84 A 17.531 17.531 0 0 0 142.152 11.523 A 21.311 21.311 0 0 0 139.36 15.52 A 22.853 22.853 0 0 0 138.363 17.582 A 25.872 25.872 0 0 0 136.76 23 A 43.543 43.543 0 0 0 136.359 25.626 A 50.647 50.647 0 0 0 136 31.76 Q 136 36.96 136.88 41.64 A 24.442 24.442 0 0 0 137.698 44.833 A 19.042 19.042 0 0 0 140.08 49.68 A 18.801 18.801 0 0 0 140.987 50.941 A 15.517 15.517 0 0 0 145.76 55.04 A 16.687 16.687 0 0 0 146.708 55.521 A 13.872 13.872 0 0 0 152.64 56.88 Q 156.16 56.88 159.28 55.44 A 11.139 11.139 0 0 0 162.675 52.969 A 15.781 15.781 0 0 0 164.64 50.4 A 22.43 22.43 0 0 0 165.535 48.809 A 28.788 28.788 0 0 0 166.56 46.56 A 30.38 30.38 0 0 0 166.88 45.74 A 33.872 33.872 0 0 0 168.04 41.96 Q 168.64 39.52 168.96 36.92 Q 169.28 34.32 169.28 31.76 A 47.852 47.852 0 0 0 169.273 30.938 A 42.953 42.953 0 0 0 168.48 23.32 A 31.584 31.584 0 0 0 167.698 20.189 Z M 152.56 53.36 A 3.736 3.736 0 0 0 154.688 52.679 Q 155.262 52.29 155.8 51.68 A 11.146 11.146 0 0 0 157.008 49.998 Q 157.517 49.141 157.965 48.102 A 21.83 21.83 0 0 0 158.36 47.12 A 28.671 28.671 0 0 0 159.221 44.393 Q 159.595 42.979 159.891 41.372 A 50.324 50.324 0 0 0 160.08 40.28 Q 160.72 36.32 160.72 31.76 Q 160.72 27.12 160.08 23.16 Q 159.496 19.548 158.513 16.768 A 25.76 25.76 0 0 0 158.32 16.24 A 20.957 20.957 0 0 0 157.439 14.219 Q 156.651 12.657 155.72 11.6 Q 154.24 9.92 152.48 9.92 Q 151.014 9.92 149.64 11.199 A 7.761 7.761 0 0 0 149.24 11.6 A 10.696 10.696 0 0 0 147.97 13.298 Q 147.437 14.168 146.97 15.232 A 21.224 21.224 0 0 0 146.56 16.24 A 31.099 31.099 0 0 0 145.607 19.235 Q 145.121 21.056 144.76 23.16 A 46.85 46.85 0 0 0 144.18 28.307 A 58.216 58.216 0 0 0 144.08 31.76 Q 144.08 36.32 144.76 40.28 Q 145.44 44.24 146.6 47.12 A 19.592 19.592 0 0 0 147.567 49.187 Q 148.119 50.197 148.74 50.997 A 10.242 10.242 0 0 0 149.32 51.68 Q 150.409 52.853 151.557 53.207 A 3.386 3.386 0 0 0 152.56 53.36 Z M 18.16 4.32 L 18.16 31.52 Q 23.44 31.52 27.6 30 A 18.607 18.607 0 0 0 31.014 28.336 A 20.46 20.46 0 0 0 31.04 28.32 Q 32.72 27.28 33.96 25.72 A 11.523 11.523 0 0 0 35.474 23.188 A 13.956 13.956 0 0 0 35.92 22.04 Q 36.64 19.92 36.56 17.04 A 14.708 14.708 0 0 0 36.245 14.778 A 11.027 11.027 0 0 0 35.56 12.68 A 11.506 11.506 0 0 0 34.105 10.246 A 10.304 10.304 0 0 0 33.4 9.44 Q 32.08 8.08 30.44 7.16 A 19.314 19.314 0 0 0 27.382 5.77 A 17.8 17.8 0 0 0 27.12 5.68 A 25.236 25.236 0 0 0 21.889 4.528 A 32.395 32.395 0 0 0 18.16 4.32 Z M 99.92 42.88 L 90.32 62.64 L 104 45.44 L 103.76 41.12 L 99.92 42.88 Z M 124.96 7.52 L 111.92 24.16 L 111.6 28.56 L 116.16 26.72 L 124.96 7.52 Z M 183.92 10.64 L 183.92 29.28 A 14.934 14.934 0 0 0 184.347 29.286 Q 185.534 29.286 186.587 29.091 A 9.291 9.291 0 0 0 188.8 28.4 Q 189.68 28 190.56 27.32 Q 191.44 26.64 192.08 25.56 A 8.175 8.175 0 0 0 192.696 24.259 A 10.979 10.979 0 0 0 193.08 23 A 9.943 9.943 0 0 0 193.301 21.702 Q 193.407 20.702 193.36 19.52 A 14.251 14.251 0 0 0 193.133 17.5 Q 192.74 15.441 191.72 14.2 A 10.766 10.766 0 0 0 190.284 12.743 A 8.034 8.034 0 0 0 188.48 11.6 Q 186.4 10.72 183.92 10.64 Z M 13.52 40.24 L 11.12 44 L 13.44 62.96 L 15.84 44 L 13.52 40.24 Z M 13.44 6 L 10.96 24.48 L 13.36 28.32 L 15.84 24.48 L 13.44 6 Z M 222.32 36.4 L 230.72 36.4 L 226.48 19.44 L 222.32 36.4 Z M 42.8 17.36 L 40.08 11.44 L 38 17.36 L 40.24 23.76 L 42.8 17.36 Z M 110.08 32 L 106 33.44 L 106.16 37.44 L 110.08 36.08 L 110.08 32 Z M 15.84 34.08 L 13.36 31.04 L 11.04 34.08 L 13.36 37.2 L 15.84 34.08 Z" vector-effect="non-scaling-stroke"/>
    </g>
</svg>